Coordinates
version=1
nRows=8
nColumns=40
inDegrees=yes

Units are S.I. units (second, meters, Newtons, ...)
If the header above contains a line with 'inDegrees', this indicates whether rotational values are in degrees (yes) or radians (no).

endheader
time	pelvis_tilt	pelvis_list	pelvis_rotation	pelvis_tx	pelvis_ty	pelvis_tz	hip_flexion_r	hip_adduction_r	hip_rotation_r	knee_angle_r	knee_angle_r_beta	ankle_angle_r	subtalar_angle_r	mtp_angle_r	hip_flexion_l	hip_adduction_l	hip_rotation_l	knee_angle_l	knee_angle_l_beta	ankle_angle_l	subtalar_angle_l	mtp_angle_l	lumbar_extension	lumbar_bending	lumbar_rotation	arm_flex_r	arm_add_r	arm_rot_r	elbow_flex_r	pro_sup_r	wrist_flex_r	wrist_dev_r	arm_flex_l	arm_add_l	arm_rot_l	elbow_flex_l	pro_sup_l	wrist_flex_l	wrist_dev_l
      1.09000000	     -4.63666597	    -10.65629912	     89.84909218	      0.17158150	      0.89079165	      0.91339046	     39.39482868	     -1.26910529	      1.39004615	      4.31510607	      0.07531281	      4.46833466	      0.00000000	      0.00000000	     -9.71061256	      9.00627815	     14.47388312	     -3.47247973	     -0.06060620	      8.81951366	      0.00000000	      0.00000000	      4.95416102	     -6.54939816	      0.44453698	      0.00000000	      0.00000000	      0.00000000	      0.00000000	      0.00000000	      0.00000000	      0.00000000	      0.00000000	      0.00000000	      0.00000000	      0.00000000	      0.00000000	      0.00000000	      0.00000000
      1.10000000	     -4.60050872	    -10.92070346	     89.85427867	      0.17207403	      0.88935949	      0.90326649	     39.31604985	     -1.06529478	      1.31659647	      4.28210902	      0.07473690	      4.43225945	     -0.00000000	      0.00000000	    -10.03505205	      8.90046892	     14.44010355	     -3.32815984	     -0.05808735	      8.76149346	      0.00000000	      0.00000000	      5.38983322	     -6.50713512	      0.49937705	     -0.00000000	     -0.00000000	     -0.00000000	      0.00000000	      0.00000000	     -0.00000000	     -0.00000000	     -0.00000000	      0.00000000	      0.00000000	      0.00000000	      0.00000000	     -0.00000000	     -0.00000000
      1.11000000	     -4.61319205	    -11.12676153	     89.85885570	      0.17254075	      0.88809541	      0.89303616	     39.23214517	     -0.91030771	      1.36560426	      4.53872985	      0.07921578	      4.29384916	      0.00000000	      0.00000000	    -10.32639363	      8.86217064	     14.30128455	     -2.99763504	     -0.05231860	      8.63880199	      0.00000000	      0.00000000	      5.76050008	     -6.52562411	      0.60813522	      0.00000000	      0.00000000	      0.00000000	      0.00000000	      0.00000000	      0.00000000	      0.00000000	      0.00000000	      0.00000000	      0.00000000	      0.00000000	      0.00000000	      0.00000000	      0.00000000
      1.12000000	     -4.53057403	    -11.35625051	     89.86235267	      0.17311572	      0.88691545	      0.88254850	     39.12630778	     -0.65765416	      1.43205151	      4.86038683	      0.08482975	      4.00349008	      0.00000000	      0.00000000	    -10.58314567	      8.71405732	     14.18559228	     -2.63072798	     -0.04591487	      8.45527906	      0.00000000	      0.00000000	      6.19674054	     -6.44598897	      0.72675959	      0.00000000	      0.00000000	      0.00000000	      0.00000000	      0.00000000	      0.00000000	      0.00000000	      0.00000000	      0.00000000	      0.00000000	      0.00000000	      0.00000000	      0.00000000	      0.00000000
      1.13000000	     -4.20731359	    -11.58881569	     89.86674756	      0.17380692	      0.88592976	      0.87179766	     38.89844865	     -0.16832552	      1.36557890	      5.06407358	      0.08838476	      2.72721639	      0.00000000	      0.00000000	    -10.89963713	      8.29455323	     14.09744253	     -2.41776918	     -0.04219803	      7.92354436	      0.00000000	      0.00000000	      6.62894234	     -6.05475820	      0.88236785	      0.00000000	      0.00000000	      0.00000000	      0.00000000	      0.00000000	      0.00000000	      0.00000000	      0.00000000	      0.00000000	      0.00000000	      0.00000000	      0.00000000	      0.00000000	      0.00000000
      1.14000000	     -4.07656142	    -11.79862596	     89.86940087	      0.17447902	      0.88512444	      0.86103431	     38.75882308	      0.12894401	      1.51924859	      5.56584023	      0.09714224	      2.29779704	      0.00000000	      0.00000000	    -11.08279056	      8.09673428	     13.96378723	     -1.89668333	     -0.03310337	      7.65664725	      0.00000000	      0.00000000	      7.05171797	     -5.92960627	      0.97420636	      0.00000000	      0.00000000	      0.00000000	      0.00000000	      0.00000000	      0.00000000	      0.00000000	      0.00000000	      0.00000000	      0.00000000	      0.00000000	      0.00000000	      0.00000000	      0.00000000
      1.15000000	     -3.72546460	    -12.06344253	     89.87091720	      0.17522011	      0.88443745	      0.84995668	     38.55242029	      0.63030731	      1.43977308	      5.85268570	      0.10214864	      0.52385534	      0.00000000	      0.00000000	    -11.21503846	      7.66305711	     13.49954694	     -1.42788783	     -0.02492134	      6.89432577	      0.00000000	      0.00000000	      7.58626922	     -5.50726453	      1.08770059	      0.00000000	      0.00000000	      0.00000000	      0.00000000	      0.00000000	      0.00000000	      0.00000000	      0.00000000	      0.00000000	      0.00000000	      0.00000000	      0.00000000	      0.00000000	      0.00000000
      1.16000000	     -3.43586696	    -12.24623492	     89.87327232	      0.17606300	      0.88407472	      0.83891696	     38.32698762	      1.07500872	      1.53465350	      6.31489918	      0.11021578	     -0.69671621	      0.00000000	      0.00000000	    -11.29456921	      7.29527657	     13.15911099	     -0.71505380	     -0.01248004	      6.22622888	      0.00000000	      0.00000000	      7.96783214	     -5.19964801	      1.17205451	      0.00000000	      0.00000000	      0.00000000	      0.00000000	      0.00000000	      0.00000000	      0.00000000	      0.00000000	      0.00000000	      0.00000000	      0.00000000	      0.00000000	      0.00000000	      0.00000000
